/* XPM */
static char *_a8198c1ee45457cd0dba342cf250ac9[] = {
/* columns rows colors chars-per-pixel */
"16 16 111 2 ",
"   c #686868",
".  c gray42",
"X  c #696B6C",
"o  c #6C6D6E",
"O  c gray43",
"+  c #70706F",
"@  c #686D70",
"#  c gray44",
"$  c #727271",
"%  c #747473",
"&  c gray47",
"*  c gray50",
"=  c #80807F",
"-  c #7F8182",
";  c #808080",
":  c #818181",
">  c #828281",
",  c gray51",
"<  c #828383",
"1  c #838383",
"2  c #848484",
"3  c #858584",
"4  c gray53",
"5  c #858788",
"6  c #888888",
"7  c #898989",
"8  c gray56",
"9  c #8E969A",
"0  c #909090",
"q  c gray59",
"w  c #979797",
"e  c gray60",
"r  c #8999A0",
"t  c #929FA6",
"y  c #95A5AF",
"u  c #9CA9B1",
"i  c #9DAAB0",
"p  c #98AAB4",
"a  c #9EB0B9",
"s  c #A2A2A2",
"d  c #A5A5A5",
"f  c #AAAAAA",
"g  c gray67",
"h  c #AFAFAF",
"j  c #A3ADB4",
"k  c #A2B1B9",
"l  c #A6B6BE",
"z  c #B4B4B4",
"x  c gray71",
"c  c gray72",
"v  c gray73",
"b  c #BBBBBB",
"n  c #BCBCBC",
"m  c gray74",
"M  c gray",
"N  c gray75",
"B  c #9AB4C1",
"V  c #9BB5C1",
"C  c #9FB8C5",
"Z  c #9EB8C6",
"A  c #9FB8C6",
"S  c #9FB9C7",
"D  c #A7BCC6",
"F  c #A2BBC8",
"G  c #AABFCB",
"H  c #ACBFC8",
"J  c #ACBFC9",
"K  c #AAC0CB",
"L  c #ADC0CA",
"P  c #AEC0CB",
"I  c #AFC1CB",
"U  c #AFC2CB",
"Y  c #AAC1CD",
"T  c #ABC2CD",
"R  c #ABC2CF",
"E  c #AFC2CC",
"W  c #AFC3CE",
"Q  c #AFC4CF",
"!  c #B0C3CC",
"~  c #B0C3CD",
"^  c #B1C4CE",
"/  c #B0C5CF",
"(  c #ACC3D0",
")  c #B9C8D0",
"_  c #C0C0C0",
"`  c #C3C3C3",
"'  c #CBCBCB",
"]  c gray82",
"[  c #D5D5D4",
"{  c #D5D5D5",
"}  c gray85",
"|  c gray86",
" . c #E2E2E2",
".. c #E7E7E7",
"X. c gray91",
"o. c gray93",
"O. c #EEEEEE",
"+. c gray94",
"@. c gray95",
"#. c #F4F4F4",
"$. c gray96",
"%. c #F6F6F6",
"&. c #F8F8F8",
"*. c #F9F9F9",
"=. c gray98",
"-. c #FBFBFB",
";. c gray99",
":. c #FDFDFD",
">. c #FEFEFE",
",. c gray100",
"<. c None",
/* pixels */
"<._ _ _ N N _ _ _ _ _ <.<.<.<.<.",
"<._ >.>.>.>.>.>.>.=.| _ <.<.<.<.",
"<.N >.>.-.>.-.-.-.=.'  ._ <.<.<.",
"<.N >.G K K -.=.=.=.N ' | N <.<.",
"<.N >.W R ( F =.=.&.&.%.>.N <.<.",
"<.N >.&.=.=.=.=.=.&.%.$.-.N <.<.",
"<.N >.W R Z j . . r R Z =.N <.<.",
"<.b =.W R Z > D a > t Z -.b <.<.",
"<.b =.^ %.^ 6 { #.k 0 l =.c <.<.",
"<.x -.^ +.^ _ > [ @ 0 i ;.z <.<.",
"<.h -.I +.W +.N $ o % 9 ] d <.<.",
"<.g =.P o.J o.o.| u g % O $ <.<.",
"<.s =.) J J J J J B y < 2 q 6 <.",
"<.e =...X...X.X...B p 5 | q <.2 ",
"<.8 >.=.=.&.=.&.=.&.&._ > 2 <.> ",
"<.> > > ; > ; > > - * > &   O > "
};
