/* XPM */
static char *_ec5e959edcd43b2cc944b888e25dae1[] = {
/* columns rows colors chars-per-pixel */
"32 32 76 1 ",
"  c gray28",
". c #5F5F5F",
"X c #646464",
"o c #6C6C6C",
"O c #747474",
"+ c #767879",
"@ c #7A7A7A",
"# c #797F82",
"$ c #7E8182",
"% c #7D868A",
"& c #848484",
"* c #898987",
"= c #84898C",
"- c #8C8C8C",
"; c #90908E",
": c #868F95",
"> c #8C8E90",
", c #879196",
"< c #8D9394",
"1 c #949494",
"2 c #989897",
"3 c #9C9C9C",
"4 c #959FA4",
"5 c #95A1A6",
"6 c #9CA0A3",
"7 c #96A1A8",
"8 c #9BA5AA",
"9 c #9FA9AF",
"0 c #A3A3A3",
"q c #A1A9AD",
"w c #ACACAC",
"e c #ACB8BC",
"r c #B4B4B4",
"t c #BCBCBC",
"y c #E8A1A1",
"u c #A2BAC6",
"i c #AEBEC5",
"p c #B2BFC7",
"a c #B9BEC0",
"s c #AEC2CC",
"d c #B4C4CD",
"f c #B9C7CF",
"g c #BECACF",
"h c #B3C6D1",
"j c #B7C9D3",
"k c #BCCCD4",
"l c #BDCED8",
"z c #C1C1C1",
"x c #CCCCCC",
"c c #C7D1D6",
"v c #C5D3DB",
"b c #CED6DA",
"n c #D3D3D3",
"m c #D5DADE",
"M c gray87",
"N c #EFC3C3",
"B c #F5DADA",
"V c #CCDAE2",
"C c #D1DFE6",
"Z c #DADEE0",
"A c #D7E1E6",
"S c #DDE1E3",
"D c #D7E3E9",
"F c #DDE5EA",
"G c #DEE8ED",
"H c #E5E5E5",
"J c #E0E6EA",
"K c #E7ECEF",
"L c #ECECEC",
"P c #F5E4E4",
"I c #E5EDF1",
"U c #E9EEF1",
"Y c #EBF1F4",
"T c #F4F4F4",
"R c #FAFAFA",
"E c None",
/* pixels */
"EzzzzzzzzzzzzzzzxxEEEEEEEEEEEEEE",
"EzRRRRRRRRRRRRRRRLxEEEEEEEEEEEEE",
"EzRvvubVRRRRRRRRRHLnEEEEEEEEEEEE",
"EzRPNNyBRRRRRRRRRnTLxEEEEEEEEEEE",
"EzRKFFJURRRRRRRRRxnRTxEEEEEEEEEE",
"EzRvvvvvvvbvRRRRRrnRRLxEEEEEEEEE",
"EzRvRJDJJURvRRRRRr&&3zHxEEEEEEEE",
"EzRvRVhlvTRvRRRRRLTTRTRzEEEEEEEE",
"EtRjvlvvvvvjRRRRRTRTTTRaEEEEEEEE",
"EzRTIRRRRRRRRKKYRRTTTTRtEEEEEEEE",
"EtRvlllllllhRllllllklsRtEEEEEEEE",
"EtRlICVAVVGlH8acDvDIIkRtEEEEEEEE",
"EtRlUvsjCIYe0oXo8lVIIkRtEEEEEEEE",
"EtRljllllliz+%%+<8kkkdTtEEEEEEEE",
"EtRTTTTTTTt63xLM>0tTTLRtEEEEEEEE",
"ErRbllllll92:lkkf&w4jlTrEEEEEEEE",
"ErRkVbjUIFg0$IIkVv<*gfTrEEEEEEEE",
"ErRkkkdkllg66>ks5=72,sRrEEEEEEEE",
"ErRgKYcYJmAJ022l&o-->kTwEEEEEEEE",
"EwTcLYgTTLLTT3-&wwO&3gTrEEEEEEEE",
"EwTgLYkLLLTLTL1OXXwO-q;$EEEEEEEE",
"EwTgLLgYLYTLLLL511$wO*oo@oEEEEEE",
"E0TkLLgLLLLLLLLgHxswroo++2oEEEEE",
"E0TjggsjggjggffsffprO& &E&0oEEEE",
"E2THHLHLLLHLHLLmbHfq@%2OEE&0XEEE",
"E1YHLHHHHHLHLHHHHHd90$H1EEE1OEEE",
"E;TmmcMbbbmbbMMbbZdc80--EEE1@EEE",
"E-THHHHHHHHHHHHHHHddd<1OEEEwOEEE",
"E&RRRRRTRTRRRRRRRRRTRT3&.X11oEEE",
"E@@@++@@@@@@+@+@@+@@@@@oOoOOEEEE",
"EEEEEEEEEEEEEEEEEEEEEEEEEEEEEEEE",
"EEEEEEEEEEEEEEEEEEEEEEEEEEEEEEEE"
};
