/* XPM */
static char *_cf25c4a8bae4f13f1b4c58cf4f33cbb[] = {
/* columns rows colors chars-per-pixel */
"64 64 102 2 ",
"   c #4B4B4B",
".  c #5D5D5C",
"X  c #5B5F62",
"o  c #636363",
"O  c #6C6C6C",
"+  c #6D6F71",
"@  c #747474",
"#  c #73797B",
"$  c #7B7B7B",
"%  c #7E7F80",
"&  c #7E8486",
"*  c #7E878B",
"=  c #7F888D",
"-  c #838483",
";  c #888887",
":  c #838789",
">  c #858A8C",
",  c #8C8C8C",
"<  c #90908F",
"1  c #8A8F91",
"2  c #879197",
"3  c #8C9092",
"4  c #879399",
"5  c #949494",
"6  c #929799",
"7  c #95999A",
"8  c #9B9C9C",
"9  c #A0A09F",
"0  c #919CA2",
"q  c #9DA2A5",
"w  c #94A3AB",
"e  c #9BA6AC",
"r  c #A4A4A3",
"t  c #A8A8A7",
"y  c #A5A9AB",
"u  c #ACACAC",
"i  c #B0B0AF",
"p  c #A1ACB2",
"a  c #A8AEB1",
"s  c #ADB2B3",
"d  c #A3B2BA",
"f  c #B4B4B4",
"g  c #B5B9BA",
"h  c #BCBCBC",
"j  c #EBACAC",
"k  c #EDB7B7",
"l  c #EEB8B8",
"z  c #A1B6C2",
"x  c #A1B9C6",
"c  c #A9BCC6",
"v  c #A4BCC9",
"b  c #AEBFC9",
"n  c #B2BFC6",
"m  c #BBBFC1",
"M  c #ABC1CC",
"N  c #B4C1C7",
"B  c #BDC3C6",
"V  c #B5C4CC",
"C  c #B9C7CE",
"Z  c #BCC8CF",
"A  c #B2C6D1",
"S  c #B6C9D3",
"D  c #BCCCD4",
"F  c #BDCFD8",
"G  c #BFD0D8",
"H  c #C1C1C1",
"J  c #C6CCCF",
"K  c #CBCBCB",
"L  c #C2CED4",
"P  c #C8CDD0",
"I  c #C7D0D5",
"U  c #C9D1D5",
"Y  c #C4D2DA",
"T  c #CDD5D9",
"R  c #CDD8DE",
"E  c #D3D3D3",
"W  c #D2D7D9",
"Q  c #D4DADD",
"!  c #DBDBDB",
"~  c #EFC2C2",
"^  c #F2CECE",
"/  c #F3D8D8",
"(  c #CDDAE1",
")  c #D4DDE1",
"_  c #DADEE0",
"`  c #D7E1E6",
"'  c #DAE1E5",
"]  c #DBE5EA",
"[  c #DFE9EE",
"{  c #E5E5E5",
"}  c #E0E7EB",
"|  c #E4EBEE",
" . c #ECECEC",
".. c #F6E4E4",
"X. c #F8EFEF",
"o. c #E6EEF2",
"O. c #E8EFF4",
"+. c #E9F1F5",
"@. c #F3F3F3",
"#. c #F9F0F0",
"$. c #FCFCFC",
"%. c None",
/* pixels */
"%.%.%.%.%.%.%.H H h H H H H H H H H H H H H H H H H H H H H H H H H H H H H H H H H %.%.%.%.%.%.%.%.%.%.%.%.%.%.%.%.%.%.%.%.%.%.",
"%.%.%.%.%.%.%.H $.$.$.$.$.$.$.$.$.$.$.$.$.$.$.$.$.$.$.$.$.$.$.$.$.$.$.$.$.$.$.$.{ H H %.%.%.%.%.%.%.%.%.%.%.%.%.%.%.%.%.%.%.%.%.",
"%.%.%.%.%.%.%.h $.$.$.$.$.$.$.$.$.$.$.$.$.$.$.$.$.$.$.$.$.$.$.$.$.$.$.$.@.$.$.$. ._ H h %.%.%.%.%.%.%.%.%.%.%.%.%.%.%.%.%.%.%.%.",
"%.%.%.%.%.%.%.H $.$.@.( Y ` ` | ` | ( ( $.$.$.$.$.$.$.$.$.$.$.$.$.$.$.$.$.$.$.$. ._ { K H %.%.%.%.%.%.%.%.%.%.%.%.%.%.%.%.%.%.%.",
"%.%.%.%.%.%.%.H $.@.@.x D ) Y ( Y ) Y ) $.$.$.$.$.$.$.$.$.$.$.$.$.$.@.$.$.@.$.$. .K @.{ K h %.%.%.%.%.%.%.%.%.%.%.%.%.%.%.%.%.%.",
"%.%.%.%.%.%.%.H $.$.$...X...........#...$.$.$.$.$.$.$.$.$.$.$.$.$.$.$.$.$.$.$.$. .f { @.{ K H %.%.%.%.%.%.%.%.%.%.%.%.%.%.%.%.%.",
"%.%.%.%.%.%.%.h $.$...~ / ~ l j l ~ ^ l $.$.$.$.$.$.$.$.$.$.$.$.$.$.$.$.$.$.@.$. .i K $.@.{ H H %.%.%.%.%.%.%.%.%.%.%.%.%.%.%.%.",
"%.%.%.%.%.%.%.H $.$.@.$.$.$.$.$.$.$.$.$.$.$.$.$.$.$.$.$.$.$.$.$.$.$.$.$.$.@.$.$.@.u f $.$.@. .H H %.%.%.%.%.%.%.%.%.%.%.%.%.%.%.",
"%.%.%.%.%.%.%.h $.$.$.$.$.$.$.$.$.$.$.$.$.$.$.$.$.$.$.$.$.$.$.$.$.$.@.$.$.$.$.$.@.u 8 $.$.$.X.{ K H %.%.%.%.%.%.%.%.%.%.%.%.%.%.",
"%.%.%.%.%.%.%.H $.$.R L L A Y R } Y A R $.$.$.$.$.$.$.$.$.$.$.$.$.$.$.$.@.$.$.@. .t 8 $.$.$.$.@.{ H H %.%.%.%.%.%.%.%.%.%.%.%.%.",
"%.%.%.%.%.%.%.H $.$.$.$.$.$.$.$.$.$.$.$.$.$.$.$.$.$.$.$.$.@.$.$.$.$.$.@.$.$.$.$. .9 8 $.$.$.$.@.@.{ H h %.%.%.%.%.%.%.%.%.%.%.%.",
"%.%.%.%.%.%.%.H $.$.Y Y Y Y Y L Y Y Y Y Y Y Y Y Y R Y Y Y D $.$.$.$.$.$.$.@.$.@.{ r , g f g g E !  .{ H H %.%.%.%.%.%.%.%.%.%.%.",
"%.%.%.%.%.%.%.h $.$.Y @.@.$.$.$.$.$.$.$.$.$.$.$.$.$.$.$.$.Y $.$.$.$.$.$.$.@.$.$.{ u , - - - - , 8 t E ! H H %.%.%.%.%.%.%.%.%.%.",
"%.%.%.%.%.%.%.H $.$.Y $.$.D D ) A Y ` ( ` R D $.$.$.$.$.$.Y $.$.$.@.$.@.$.$.@.$.{ H g g h h K K H K E ! ! H %.%.%.%.%.%.%.%.%.%.",
"%.%.%.%.%.%.%.H $.$.Y $.$.] Y ( D ) x @.D Y ] $.$.$.$.$.$.L $.$.$.@.$.$.@.@.$.$.@.@.@.$.#.@.@.@.@.@.@.@.$.H %.%.%.%.%.%.%.%.%.%.",
"%.%.%.%.%.%.%.H $.$.Y @.$.Y R R ( ( @.R Y $.$.$.$.$.$.@.$.L $.$.$.$.$.$.$.$.$.@.$.$.@.@.$.@.$.@.@.@.@.@.$.h %.%.%.%.%.%.%.%.%.%.",
"%.%.%.%.%.%.%.H $.$.Y $.@.$. .$.$.$.$.$.$.$.$.$.$.$.$.$.$.L $.@.$.$.$.@.@.$.$.@.@.$.@.$.@.$.$.@.$.@.@.@.$.H %.%.%.%.%.%.%.%.%.%.",
"%.%.%.%.%.%.%.h $.$.( Y Y Y Y Y Y Y Y Y Y Y Y L Y Y Y Y Y Y $.$.$.@.$.$.$.$.@.$.$.@.$.@.@.@.@.@.@.@.@.@.$.H %.%.%.%.%.%.%.%.%.%.",
"%.%.%.%.%.%.%.H $.$. .| | | $.$.$.$.@.@.$.$.$.$.$.@.$.$.$.$.$.|  .$.] $.$.@.+.$.@.$.$.@.$.@.$.@.@.@.@.@.$.H %.%.%.%.%.%.%.%.%.%.",
"%.%.%.%.%.%.%.h $.@.] Y  .Y  .$.@.$.$.$.@.$.@.$.$.$.@.$.$.@.$.] ` A | ( @.$.$.$.$.@.@.@.$.@.@.@.@.@.@.@.$.H %.%.%.%.%.%.%.%.%.%.",
"%.%.%.%.%.%.%.H $.$.( F F F F F F G F F L Y G G Y G G Y G G $.( G G G G F F F F F D G G F F D D Y D D @.$.h %.%.%.%.%.%.%.%.%.%.",
"%.%.%.%.%.%.%.h $.@.F +.+.+.+.[ +.+.+.+.+.+.+.+.+.+.+.+.+.F $.G +.+.+.[ +.+.+.[ o.+.+.o.o.+.o.o.o.o.S @.$.H %.%.%.%.%.%.%.%.%.%.",
"%.%.%.%.%.%.%.m $.$.F O.+.A ( F M ( F F S F M Y ( +.+.+.+.G @.Y +.+.Y M ] A R M S R o.+.o.o.o.o.o.o.D @.$.h %.%.%.%.%.%.%.%.%.%.",
"%.%.%.%.%.%.%.H $.@.F +.+.F [ F A [ M ] +.+.+.+.+.+.] m 8 : < 1 C +.( R F A ] M ] +.o.o.o.o.o.o.o.| S @.$.H %.%.%.%.%.%.%.%.%.%.",
"%.%.%.%.%.%.%.h $.@.D +.O.A S Y M F [ A v +.+.+.+.J y t : $ % $ + % N M F M F ] A v o.| +.| o.| | | D  .$.h %.%.%.%.%.%.%.%.%.%.",
"%.%.%.%.%.%.%.h $.$.F +.O.O.+.O.+.+.+.+.+.+.+.+.J H K - o O @ @ < 8 - Q +.+.O.+.o.O.| +.O.O.| | | | S @.$.h %.%.%.%.%.%.%.%.%.%.",
"%.%.%.%.%.%.%.h $.$.R D D F F D F F F F Y G G C h  .$ + = = 9 > $ < i ; N L F F G F D F D G D D F D D @.$.h %.%.%.%.%.%.%.%.%.%.",
"%.%.%.%.%.%.%.h $.@.@.@.$.@.@.$.$.@.$.+.@.@.@.H _ ; $ r r H E J y ; 8 h < ' @.@.@.@.@.@.@.+.@.@.@. .@.@.$.h %.%.%.%.%.%.%.%.%.%.",
"%.%.%.%.%.%.%.h $.@.( D F F F F S F F F F F G y _ o * 4 D D F F F e ; r H < N D F D D D D D D D F D D O.$.h %.%.%.%.%.%.%.%.%.%.",
"%.%.%.%.%.%.%.g $.@.D o.( o.[ [ +.S O.O.o.o.o.t h @ q } [ o.O.O.+.+.H 5 u P < Q ( [ +.S | ] | | ] | S  .$.h %.%.%.%.%.%.%.%.%.%.",
"%.%.%.%.%.%.%.h $.@.G O.M F v F +.S +.O.o.o.o.r h O w V D S +.O.O.o.o.N 5 a E ; D Y A S | G v S S | S @.$.h %.%.%.%.%.%.%.%.%.%.",
"%.%.%.%.%.%.%.h $.@.D D D S F D S A S F D F D 0 E O d D D D F D D D D S e ; t E @ V S M S D D S S S M  .$.h %.%.%.%.%.%.%.%.%.%.",
"%.%.%.%.%.%.%.g $.@.D X.@.@.@.@.@.L @.@.@.@.@.h K - 7 @.@.@.@.@.@.@.@.@.@.p ; h 9 9 @.L @.@.@. .@. .D @.$.h %.%.%.%.%.%.%.%.%.%.",
"%.%.%.%.%.%.%.h $.@.D @.@.' @.+.@.L @.@.@.D ' Z 9 H $ q ` @.@.@.@.@.@.@.@.Z H < ! o { D @.) Q M )  .D  .$.f %.%.%.%.%.%.%.%.%.%.",
"%.%.%.%.%.%.%.f $.@.L @.@.@.@. .@.G @.@.@.@.@.@.h f H % u @.@.@.@. .@.| K n @.r { o H D  . .@. . . .D  .$.h %.%.%.%.%.%.%.%.%.%.",
"%.%.%.%.%.%.%.g $.X.D @.@. .@.@.@.D @.@.@.@. .@.{ 9 u h ; f X.@.@.@._   . 5 ' i  .O t D  .@. . . . .D  .$.f %.%.%.%.%.%.%.%.%.%.",
"%.%.%.%.%.%.%.f $.@.D X. .@.@.@.@.D @.@.@.@. .@.@.E 8 i f , i X. .X.h , o % t f { O 8 Z  .@. . .@. .D  .$.f %.%.%.%.%.%.%.%.%.%.",
"%.%.%.%.%.%.%.i $.@.D  .@.X. .@.@.D X.@.@.@.@.@.@.@.! 7 t i ; i @.@.K t H O - t t $ 8 B @. . .@. . .C  .$.i %.%.%.%.%.%.%.%.%.%.",
"%.%.%.%.%.%.%.f $. .D  .+.@.@.X.@.D @. . .@.X.@.@.@. .! 7 8 r $ r  .X.h K H O - r , t D  . . . . . .Z  .$.f %.%.%.%.%.%.%.%.%.%.",
"%.%.%.%.%.%.%.i $.@.D @. . . . . .D  .@.@. .@.@. . .@. .! 7 5 8 @ - u h - K H O - r f D  . . . . . .Z  .$.i %.%.%.%.%.%.%.%.%.%.",
"%.%.%.%.%.%.%.u $. .D  . .X. .@.@.D  .@. .@. .@.@. .@. .@.E 5 ; < $ O . . $ K H O - t N  .E h f K ! D  .$.i %.%.%.%.%.%.%.%.%.%.",
"%.%.%.%.%.%.%.u $.X.D @. . . .@. .D @. .@. . . . .@. .@. .@.W 8 % $ % % - - , K H O - t 9 , $ @ O o : E $.u %.%.%.%.%.%.%.%.%.%.",
"%.%.%.%.%.%.%.u $. .D  .+. .@. . .L  .@. . .@. . . .@. . .@. .! t 7 < , 5 * 8 5 K H O - r , O @ $ < ; $ E u %.%.%.%.%.%.%.%.%.%.",
"%.%.%.%.%.%.%.u $. .Z  . . . . . .D  . . .@. . .@. . . . . . . .{ K u r 9 2 h K 9 K H O - 8 $ , $ @ < r - 8 %.%.%.%.%.%.%.%.%.%.",
"%.%.%.%.%.%.%.t $. .D  . . . . . .D  . .@. . . . . . .@. .@. . . . . .{ { Z  . .! 7 K H O @ ; 5 r 5 $ 8 f ; %.%.%.%.%.%.%.%.%.%.",
"%.%.%.%.%.%.%.r $.| Z  . . . . . .Z  . . . . . . . . . . . . . . . . . . .Z  .{ K K u H t . o @ { ! 0 , r H ; %.%.%.%.%.%.%.%.%.",
"%.%.%.%.%.%.%.r $. .C  .{  . . . .Z  . . . . . . . . . . . . . . . . .|  .C  . .h { $ @ r <     ! { V f < r K , %.%.%.%.%.%.%.%.",
"%.%.%.%.%.%.%.r $. .Z C Z Z D Z Z M Z Z Z Z D D C D Z Z Z Z Z D Z Z Z Z Z M C Z q { O # # $ o X 0 C c { K ; t E ; %.%.%.%.%.%.%.",
"%.%.%.%.%.%.%.8 $. .{  . . . .{  . . . .{  . . . . .{  . . .{ {  .{ {  . .R L Y t E % & Q 8 > : s { V { $.; - t E - %.%.%.%.%.%.",
"%.%.%.%.%.%.%.8 $. .{  .{ { {  .{  .{  .{  .{  .{  .{  . .{  . .{  . .{ { _ W ! B g t @ _ E s a Q { V { $.8 %.% i h @ %.%.%.%.%.",
"%.%.%.%.%.%.%.8 $.{ { { { {  .{  .{ {  . . .{  . .{  .{ {  . . . .{ {  .{  . .{ { 8 E $ 7 C C C V V n { $.8 %.%.% ! @ %.%.%.%.%.",
"%.%.%.%.%.%.%.5 $. .{  . .{  .{ {  .{ { { {  .{ {  .{  . .{ { {  .{  .{ { { { { Z h t h % 9 U T P { V { $.5 %.%.%.i , @ %.%.%.%.",
"%.%.%.%.%.%.%.5 $.{ { { { { { { { { {  .{  .{  .{  .{ {  .{ { { { { {  .{ { { { Q Q 9 i h ; 8 Q Q { V { $.5 %.%.%.u u @ %.%.%.%.",
"%.%.%.%.%.%.%.< $.{ { { { { { { { { { { { { { { { { { { { { { { { { { { { { { { { { E : u f ; 6 b V x { $.< %.%.%.g 8 # %.%.%.%.",
"%.%.%.%.%.%.%.< $.{ { { L V c L z C M C I N C T L N c D Z N M c C z { T L C L T Z C { p 1 u f ; 6 Q V { $.< %.%.%.K ; $ %.%.%.%.",
"%.%.%.%.%.%.%.; $.{ { { { { { { { { { { { { { { { { { { { { { { { { { ! T Q P T T L { V J 1 r t - 7 b { $., %.%.g K @ %.%.%.%.%.",
"%.%.%.%.%.%.%.; $.{ { { { { { { { { { { { { { { { { { { { { { { { { { { { { { { { { { L N d * 8 8 $ - H @.% %.t { < ; %.%.%.%.%.",
"%.%.%.%.%.%.%.- $.{ { { { { { { { { { { { { { { { { { { { { { { { { { { { { { { { { { { { { K < , < @ O O @ 5 f < ; %.%.%.%.%.%.",
"%.%.%.%.%.%.%.- $.$.$.$.$.$.$.$.$.$.$.$.$.$.$.$.$.$.$.$.$.$.$.$.$.$.$.$.$.$.$.$.$.$.$.$.$.$.$. .9 $ - % @ $ ; - ; %.%.%.%.%.%.%.",
"%.%.%.%.%.%.%.$ $ $ $ $ $ $ $ $ $ $ $ $ $ $ $ $ $ $ $ $ $ $ $ $ $ $ $ $ $ $ $ $ $ $ $ $ $ $ $ $ O . O + % - - %.%.%.%.%.%.%.%.%.",
"%.%.%.%.%.%.%.%.%.%.%.%.%.%.%.%.%.%.%.%.%.%.%.%.%.%.%.%.%.%.%.%.%.%.%.%.%.%.%.%.%.%.%.%.%.%.%.%.%.%.%.%.%.%.%.%.%.%.%.%.%.%.%.%.",
"%.%.%.%.%.%.%.%.%.%.%.%.%.%.%.%.%.%.%.%.%.%.%.%.%.%.%.%.%.%.%.%.%.%.%.%.%.%.%.%.%.%.%.%.%.%.%.%.%.%.%.%.%.%.%.%.%.%.%.%.%.%.%.%.",
"%.%.%.%.%.%.%.%.%.%.%.%.%.%.%.%.%.%.%.%.%.%.%.%.%.%.%.%.%.%.%.%.%.%.%.%.%.%.%.%.%.%.%.%.%.%.%.%.%.%.%.%.%.%.%.%.%.%.%.%.%.%.%.%.",
"%.%.%.%.%.%.%.%.%.%.%.%.%.%.%.%.%.%.%.%.%.%.%.%.%.%.%.%.%.%.%.%.%.%.%.%.%.%.%.%.%.%.%.%.%.%.%.%.%.%.%.%.%.%.%.%.%.%.%.%.%.%.%.%."
};
